<svg xmlns="http://www.w3.org/2000/svg" viewBox="0 0 1400 560" role="img" aria-label="Instituto Meio do Mundo">
  <title>Instituto Meio do Mundo</title>

  <g fill="none" stroke="#f5c800" stroke-width="10" stroke-linecap="round" stroke-linejoin="round">
    <path d="M180 260c18 12 45 12 63 0s45-12 63 0 45 12 63 0 45-12 63 0 45 12 63 0 45-12 63 0 45 12 63 0 45-12 63 0 45 12 63 0 45-12 63 0 45 12 63 0 45-12 63 0 45 12 63 0"/>
    <line x1="295" y1="244" x2="295" y2="265"/>
    <line x1="410" y1="242" x2="410" y2="265"/>
    <line x1="525" y1="244" x2="525" y2="265"/>
    <line x1="640" y1="242" x2="640" y2="265"/>
    <line x1="760" y1="244" x2="760" y2="265"/>
    <line x1="875" y1="242" x2="875" y2="265"/>
    <line x1="990" y1="244" x2="990" y2="265"/>
    <line x1="1105" y1="242" x2="1105" y2="265"/>
  </g>

  <g fill="#f5c800">
    <rect x="626" y="90" width="148" height="170"/>
    <rect x="652" y="104" width="96" height="22"/>
    <rect x="640" y="260" width="120" height="2" opacity="0"/>
  </g>

  <circle cx="700" cy="175" r="35" fill="#1a4a1a"/>

  <text x="700" y="352" text-anchor="middle" fill="#ffffff" font-family="Montserrat, Arial, sans-serif" font-size="54" font-weight="700" letter-spacing="20">INSTITUTO</text>
  <text x="700" y="485" text-anchor="middle" fill="#ffffff" font-family="Impact, Haettenschweiler, 'Arial Black', sans-serif" font-size="102" font-weight="800" letter-spacing="4">MEIO DO MUNDO</text>
</svg>
