<svg xmlns="http://www.w3.org/2000/svg" viewBox="0 0 800 800" role="img" aria-label="Parcerias">
  <circle cx="400" cy="400" r="380" fill="#245623" stroke="#f5c800" stroke-width="14"/>
  <g fill="#ececec">
    <rect x="164" y="334" width="118" height="72" rx="16" transform="rotate(-40 223 370)"/>
    <rect x="518" y="334" width="118" height="72" rx="16" transform="rotate(40 577 370)"/>
    <path d="M285 389c41-43 93-43 132-18 17 11 43 10 62 0 31-16 66-16 106 18l-58 58c-16 16-41 18-59 4l-18-14c-22-17-53-15-72 4l97 72c14 10 17 31 7 45-10 14-31 17-45 7l-95-70-14 14c-12 12-31 13-45 3s-17-30-7-44l-25 24c-13 13-33 13-45 1-13-12-13-32-1-45l26-26c-15 11-36 9-47-5-11-15-9-35 5-47l96-86z"/>
  </g>
</svg>
