<svg xmlns="http://www.w3.org/2000/svg" viewBox="0 0 800 800" role="img" aria-label="Impacto">
  <circle cx="400" cy="400" r="380" fill="#245623" stroke="#f5c800" stroke-width="14"/>
  <g fill="#ececec">
    <rect x="220" y="446" width="76" height="170" rx="14"/>
    <path d="M306 607V455c62 0 95-19 95-89 0-24 9-41 31-41 38 0 60 37 60 84v30h72c18 0 32 14 32 32s-14 32-32 32h-5c18 0 32 14 32 32s-14 32-32 32h-10c18 0 32 14 32 32s-14 32-32 32H306z"/>
    <polygon points="400,236 412,262 440,266 419,285 424,314 400,300 376,314 381,285 360,266 388,262"/>
    <polygon points="274,298 286,323 314,327 293,346 298,374 274,360 250,374 255,346 234,327 262,323"/>
    <polygon points="526,298 538,323 566,327 545,346 550,374 526,360 502,374 507,346 486,327 514,323"/>
  </g>
</svg>
